<svg width="11" height="9" viewBox="0 0 11 9" fill="none" xmlns="http://www.w3.org/2000/svg">
<path d="M10.1797 4.82959C10.4558 4.82959 10.6797 4.60573 10.6797 4.32959C10.6797 4.05345 10.4558 3.82959 10.1797 3.82959L10.1797 4.82959ZM1.08395 3.97604C0.888684 4.1713 0.888684 4.48788 1.08395 4.68314L4.26593 7.86512C4.46119 8.06039 4.77777 8.06039 4.97303 7.86512C5.1683 7.66986 5.1683 7.35328 4.97303 7.15802L2.14461 4.32959L4.97303 1.50116C5.1683 1.3059 5.1683 0.989318 4.97303 0.794055C4.77777 0.598793 4.46119 0.598793 4.26593 0.794055L1.08395 3.97604ZM10.1797 3.82959L1.4375 3.82959L1.4375 4.82959L10.1797 4.82959L10.1797 3.82959Z" fill="#424B54"/>
</svg>
