<svg width="71" height="23" viewBox="0 0 71 23" fill="none" xmlns="http://www.w3.org/2000/svg">
<path d="M9.5831 4.12999C10.5261 4.12999 11.469 4.23466 12.2259 4.34241C12.9583 4.4748 14.0538 4.57947 14.2095 4.57947C14.7069 4.57947 14.9175 4.49943 15.1006 4.42246C15.2562 4.34242 15.3874 4.26545 15.6774 4.26545C16.9347 4.26545 17.0384 5.32143 17.249 6.58984C17.4595 7.83054 17.5877 9.28368 17.5877 9.81013C17.5877 10.7337 17.0903 11.0785 16.1992 11.0785C15.1799 11.0785 13.117 7.30409 10.6024 7.30409C8.16711 7.30409 7.6178 11.134 7.6178 12.8765C7.6178 15.9644 9.00633 19.6095 11.4904 19.6095C14.475 19.6095 14.6306 16.7587 15.9398 16.7587C17.014 16.7587 17.014 17.7623 17.014 18.5535C17.014 19.8743 17.014 21.5121 15.5736 22.1186C14.1088 22.7528 11.7101 22.6205 9.76315 22.6205C3.01583 22.6205 0.8125 18.3165 0.8125 13.7231C0.8125 8.94502 3.24776 4.13922 9.58005 4.13922L9.5831 4.12999Z" fill="white"/>
<path d="M18.7096 5.70931C18.7096 5.02276 18.3159 4.65332 17.8978 4.4409C17.5041 4.25618 17.1379 4.09917 17.1379 3.41262C17.1379 2.03954 22.5303 0.798828 23.3939 0.798828C24.1019 0.798828 24.4925 1.24832 24.4925 1.95949C24.4925 3.8344 24.3369 8.48626 24.3613 10.3335C25.5667 9.30519 27.1109 8.72332 28.5757 8.72332C30.3305 8.72332 33.55 9.22514 33.55 13.0796C33.55 15.3763 33.6294 16.5123 33.6294 17.6484C33.6294 18.415 33.6294 19.9204 34.3892 20.2375C34.8348 20.4223 35.0423 20.5269 35.0423 21.2935C35.0423 21.7676 34.8592 22.6143 34.3343 22.6143H27.5809C26.9003 22.6143 26.7966 21.7707 26.7966 21.2412C26.7966 20.3422 27.294 20.6593 27.4496 20.2375C27.7365 19.4987 27.764 19.1015 27.764 16.5924C27.764 14.8222 27.764 12.1837 25.4874 12.1837C24.9381 12.1837 24.4407 12.4731 24.4407 13.0827C24.4407 14.6682 24.4925 16.4877 24.4925 17.7838C24.4925 18.6828 24.52 19.9759 25.1212 20.2406C25.6461 20.4777 25.7743 20.6624 25.7743 21.3489C25.7743 22.1925 25.643 22.6174 24.755 22.6174H18.1603C17.2966 22.6174 17.2173 22.3002 17.2173 21.509C17.2173 20.5854 17.5041 20.5054 18.0809 20.2406C18.7096 19.9512 18.7096 17.7315 18.7096 13.8247V5.71239V5.70931Z" fill="white"/>
<path d="M41.9788 8.72316C46.2726 8.72316 49.3059 10.9952 49.3059 15.5363C49.3059 20.182 45.9826 22.7988 41.6096 22.7988C37.3707 22.7988 34.4655 20.5545 34.4655 16.1458C34.4655 11.5247 37.4501 8.72623 41.9758 8.72623L41.9788 8.72316ZM40.4865 14.5572C40.4865 19.126 41.3502 20.1543 42.1863 20.1543C42.8943 20.1543 43.2849 19.3107 43.2849 16.9586C43.2849 12.3899 42.4213 11.3616 41.5577 11.3616C40.8771 11.3616 40.4835 12.2051 40.4835 14.5572H40.4865Z" fill="white"/>
<path d="M50.2377 12.2757C50.2377 11.8016 49.8441 11.6415 49.4534 11.4322C49.0872 11.2475 48.6936 11.1151 48.6936 10.3762C48.6936 9.50495 49.9234 9.16014 51.4157 8.71373C52.9599 8.23962 55.1571 7.65774 55.5263 7.65774C55.8407 7.65774 56.0238 7.73779 56.0238 8.31658V19.0211C56.0238 19.4952 56.4937 19.84 57.0705 20.2372C57.4367 20.5019 57.5679 20.5789 57.5679 21.1608C57.5679 22.2168 57.0705 22.6139 56.1794 22.6139H49.426C48.8767 22.6139 48.6142 22.0844 48.6142 21.5579C48.6142 21.0038 48.6142 20.582 49.191 20.2372C50.0028 19.7631 50.2377 19.4706 50.2377 17.7558V12.2788V12.2757ZM53.7991 2.13461C54.9343 2.13461 56.0085 2.67646 56.0085 3.9418C56.0085 6.0199 53.2315 7.37759 51.4371 7.37759C50.2408 7.37759 49.6732 6.92502 49.6732 5.65969C49.6732 3.85251 52.1237 2.13461 53.796 2.13461H53.7991Z" fill="white"/>
<path d="M62.9208 14.453C63.3938 13.7511 63.6471 13.2154 63.6471 13.0183C63.6471 12.849 62.3867 12.6366 61.2973 12.7659C59.9118 12.9291 57.7207 13.6372 57.2751 13.6372C56.7441 13.6372 56.7716 12.9352 56.7716 12.5689C56.7716 12.0055 57.0493 10.8817 57.5803 9.86887C58.0838 8.9114 58.389 8.01243 59.3381 8.01243C60.6503 8.01243 67.6082 8.01243 68.9174 8.01243C69.5857 8.01243 70.0038 8.18176 70.0038 8.94219C70.0038 9.11151 69.6956 9.67491 69.1951 10.4323L65.4568 16.0878C65.0661 16.7066 64.8434 17.1838 64.8434 17.3808C64.8434 17.6056 65.0936 17.6918 65.3469 17.6918C67.9134 17.6918 69.6986 15.9769 70.1167 15.9769C70.6172 15.9769 70.8125 16.5403 70.8125 16.9898C70.8125 17.2423 70.6172 18.5938 70.1442 20.0008C69.4179 22.1681 69.3355 22.6176 67.9683 22.6176H59.2679C58.7369 22.6176 58.1815 22.5345 58.1815 21.8849C58.1815 21.6879 58.4043 21.1522 58.8498 20.5057L62.9208 14.4561V14.453Z" fill="white"/>
</svg>
