<svg width="51" height="17" viewBox="0 0 51 17" fill="none" xmlns="http://www.w3.org/2000/svg">
<path d="M6.53837 2.81825C7.22203 2.81825 7.90569 2.89348 8.45438 2.97092C8.98538 3.06605 9.77966 3.14128 9.8925 3.14128C10.2531 3.14128 10.4058 3.08376 10.5385 3.02844C10.6514 2.97092 10.7465 2.9156 10.9567 2.9156C11.8682 2.9156 11.9435 3.67448 12.0961 4.58603C12.2488 5.47766 12.3417 6.52196 12.3417 6.90029C12.3417 7.56404 11.9811 7.81184 11.335 7.81184C10.5961 7.81184 9.10043 5.09933 7.27734 5.09933C5.51178 5.09933 5.11353 7.85166 5.11353 9.10393C5.11353 11.323 6.12021 13.9426 7.92117 13.9426C10.085 13.9426 10.1978 11.8939 11.147 11.8939C11.9258 11.8939 11.9258 12.6151 11.9258 13.1838C11.9258 14.1329 11.9258 15.3099 10.8815 15.7458C9.81949 16.2016 8.08047 16.1064 6.66891 16.1064C1.7771 16.1064 0.179688 13.0134 0.179688 9.71236C0.179688 6.27858 1.94525 2.82489 6.53616 2.82489L6.53837 2.81825Z" fill="#292929"/>
<path d="M13.1551 3.95323C13.1551 3.45985 12.8696 3.19435 12.5665 3.04169C12.2811 2.90894 12.0156 2.7961 12.0156 2.30272C12.0156 1.31595 15.9251 0.424316 16.5512 0.424316C17.0645 0.424316 17.3477 0.747344 17.3477 1.25843C17.3477 2.60583 17.2349 5.94889 17.2526 7.27638C18.1265 6.53741 19.246 6.11926 20.308 6.11926C21.5802 6.11926 23.9144 6.47989 23.9144 9.24992C23.9144 10.9004 23.9719 11.7168 23.9719 12.5332C23.9719 13.0842 23.9719 14.1661 24.5228 14.394C24.8458 14.5267 24.9963 14.6019 24.9963 15.1528C24.9963 15.4936 24.8635 16.102 24.483 16.102H19.5867C19.0934 16.102 19.0181 15.4958 19.0181 15.1152C19.0181 14.4692 19.3788 14.6971 19.4916 14.394C19.6996 13.863 19.7195 13.5775 19.7195 11.7744C19.7195 10.5022 19.7195 8.60609 18.069 8.60609C17.6707 8.60609 17.3101 8.81406 17.3101 9.25214C17.3101 10.3916 17.3477 11.6991 17.3477 12.6306C17.3477 13.2766 17.3676 14.2059 17.8035 14.3962C18.184 14.5665 18.277 14.6993 18.277 15.1927C18.277 15.7989 18.1818 16.1042 17.538 16.1042H12.7568C12.1307 16.1042 12.0732 15.8763 12.0732 15.3077C12.0732 14.644 12.2811 14.5864 12.6993 14.3962C13.1551 14.1882 13.1551 12.593 13.1551 9.78534V3.95545V3.95323Z" fill="#292929"/>
<path d="M30.0253 6.11914C33.1382 6.11914 35.3374 7.75196 35.3374 11.0154C35.3374 14.354 32.928 16.2346 29.7576 16.2346C26.6844 16.2346 24.5781 14.6217 24.5781 11.4534C24.5781 8.1325 26.7419 6.12135 30.0231 6.12135L30.0253 6.11914ZM28.9434 10.3118C28.9434 13.5951 29.5695 14.3341 30.1757 14.3341C30.689 14.3341 30.9722 13.7279 30.9722 12.0375C30.9722 8.75421 30.3461 8.01524 29.7199 8.01524C29.2266 8.01524 28.9411 8.62146 28.9411 10.3118H28.9434Z" fill="#292929"/>
<path d="M36.013 8.6722C36.013 8.33148 35.7276 8.21643 35.4444 8.06599C35.1789 7.93324 34.8935 7.8381 34.8935 7.3071C34.8935 6.68097 35.7851 6.43317 36.867 6.11236C37.9865 5.77164 39.5795 5.35348 39.8472 5.35348C40.0751 5.35348 40.2078 5.411 40.2078 5.82695V13.5198C40.2078 13.8605 40.5486 14.1083 40.9667 14.3937C41.2322 14.584 41.3274 14.6393 41.3274 15.0574C41.3274 15.8163 40.9667 16.1017 40.3207 16.1017H35.4245C35.0262 16.1017 34.8359 15.7212 34.8359 15.3429C34.8359 14.9446 34.8359 14.6415 35.2541 14.3937C35.8426 14.053 36.013 13.8428 36.013 12.6104V8.67442V8.6722ZM38.595 1.38428C39.418 1.38428 40.1968 1.77368 40.1968 2.68301C40.1968 4.17644 38.1834 5.15215 36.8825 5.15215C36.0152 5.15215 35.6037 4.82691 35.6037 3.91758C35.6037 2.61885 37.3803 1.38428 38.5927 1.38428H38.595Z" fill="#292929"/>
<path d="M45.2082 10.2369C45.5511 9.73244 45.7348 9.34747 45.7348 9.20587C45.7348 9.08419 44.821 8.93153 44.0312 9.02445C43.0267 9.14171 41.4381 9.65058 41.1151 9.65058C40.7301 9.65058 40.75 9.14614 40.75 8.88285C40.75 8.47797 40.9514 7.67041 41.3364 6.9425C41.7014 6.25442 41.9227 5.60838 42.6107 5.60838C43.5621 5.60838 48.6066 5.60838 49.5557 5.60838C50.0403 5.60838 50.3434 5.73006 50.3434 6.27654C50.3434 6.39823 50.1199 6.80311 49.7571 7.34739L47.0468 11.4117C46.7636 11.8564 46.6021 12.1994 46.6021 12.341C46.6021 12.5025 46.7835 12.5644 46.9671 12.5644C48.8278 12.5644 50.1221 11.3321 50.4252 11.3321C50.7881 11.3321 50.9297 11.737 50.9297 12.06C50.9297 12.2414 50.7881 13.2127 50.4452 14.2238C49.9186 15.7814 49.8588 16.1044 48.8676 16.1044H42.5599C42.1749 16.1044 41.7722 16.0447 41.7722 15.5778C41.7722 15.4362 41.9337 15.0513 42.2567 14.5866L45.2082 10.2391V10.2369Z" fill="#292929"/>
</svg>
